<svg xmlns="http://www.w3.org/2000/svg" viewBox="0 0 24 24" fill="currentColor">
  <path d="M12 0C5.373 0 0 5.373 0 12c0 5.573 3.804 10.252 8.956 11.62l3.378-4.893c-.56-.084-1.116-.2-1.668-.348-1.98-.535-3.548-1.94-4.307-3.77l-5.19-2.59c-.11.434-.169.89-.169 1.361 0 3.038 2.462 5.5 5.5 5.5s5.5-2.462 5.5-5.5c0-.47-.059-.926-.169-1.36l-5.19 2.59c-.76 1.83-2.327 3.235-4.307 3.77-.552.149-1.108.264-1.668.348l3.378 4.893C20.196 22.252 24 17.573 24 12 24 5.373 18.627 0 12 0zm0 2c5.523 0 10 4.477 10 10 0 4.4-2.846 8.133-6.795 9.465l-2.07-3c1.79-.296 3.17-1.66 3.47-3.43l3.67-1.835c.437-.218.725-.665.725-1.165 0-.5-.288-.947-.725-1.165l-3.67-1.835c-.3-1.77-1.68-3.134-3.47-3.43l2.07-3C5.846 3.867 3 7.6 3 12c0 .885.122 1.74.343 2.558l4.06 2.03c.62.31 1.116.83 1.425 1.46.31.63.41 1.34.29 2.03l-3.37 4.88C2.8 20.13 2 16.23 2 12 2 6.477 6.477 2 12 2z"/>
</svg>

